<svg width="515" height="100%" viewBox="0 0 517 203" fill="none" xmlns="http://www.w3.org/2000/svg">
<g clip-path="url(#clip0_1468_1279)">
<path d="M67.6841 108.809C73.2242 111.247 79.6906 108.73 82.1272 103.185C84.5638 97.6414 82.0479 91.1703 76.5078 88.7319L17.2592 62.6552C11.719 60.2169 5.25263 62.7346 2.81604 68.2787C0.37944 73.8228 2.89535 80.2939 8.43549 82.7322L67.6841 108.809Z" fill="#4BE24B"/>
<path d="M69.3325 137.986C74.8726 140.424 81.3391 137.906 83.7757 132.362C86.2122 126.818 83.6963 120.347 78.1562 117.909L18.9076 91.832C13.3675 89.3936 6.90107 91.9113 4.46447 97.4555C2.02788 103 4.54379 109.471 10.0839 111.909L69.3325 137.986Z" fill="#2FE35C"/>
<path d="M73.7924 50.0904C79.0338 47.062 80.8297 40.355 77.8035 35.1098C74.7774 29.8646 68.0752 28.0675 62.8338 31.0958L7.29314 63.1853C2.05171 66.2136 0.255872 72.9206 3.28201 78.1658C6.30815 83.411 13.0103 85.2082 18.2518 82.1798L73.7924 50.0904Z" fill="#4CFB4C"/>
<path d="M77.4145 108.699C82.7967 105.589 84.7066 98.8165 81.6805 93.5713C78.6543 88.3261 71.838 86.5948 66.4558 89.7045L9.4235 122.656C4.04129 125.765 2.13133 132.538 5.15747 137.784C8.18361 143.029 14.9999 144.76 20.3821 141.65L77.4145 108.699Z" fill="#4CFB4C"/>
<path d="M75.4662 79.4178C80.7077 76.3894 82.5035 69.6824 79.4774 64.4372C76.4512 59.192 69.749 57.3949 64.5076 60.4232L8.96697 92.5127C3.72555 95.541 1.9297 102.248 4.95584 107.493C7.98198 112.738 14.6842 114.536 19.9256 111.507L75.4662 79.4178Z" fill="#33FB65"/>
<path d="M78.8706 137.6C84.3725 134.421 86.3884 127.608 83.3733 122.382C80.3583 117.156 73.4539 115.496 67.9521 118.675L9.6521 152.359C4.15027 155.537 2.13435 162.351 5.14942 167.577C8.16448 172.803 15.0688 174.462 20.5706 171.284L78.8706 137.6Z" fill="#33FB65"/>
<path d="M3.72533 191.998C3.72533 198.054 8.63167 202.964 14.684 202.964C20.7362 202.964 25.6426 198.054 25.6426 191.998L25.6426 132.286C25.6426 126.229 20.7362 121.319 14.684 121.319C8.63167 121.319 3.72533 126.229 3.72533 132.286L3.72533 191.998Z" fill="#4CFB4C"/>
</g>
<path d="M153.448 159.077C136.642 159.077 123.902 152.978 113.331 142.136C116.177 137.392 121.869 130.209 125.935 126.549C134.88 134.275 145.587 139.831 155.21 139.831C163.884 139.831 169.847 135.223 169.847 127.363C169.847 119.366 166.866 115.571 147.349 108.795C127.29 101.883 117.939 92.531 117.939 76.9449C117.939 56.7507 130.679 45.5015 153.719 45.5015C167.272 45.5015 179.47 51.0583 188.144 60.0034C185.162 64.8825 180.419 70.3038 175.675 74.2342C167.814 67.4576 161.58 64.6115 152.635 64.4759C143.961 64.3404 139.082 68.813 139.082 75.8606C139.082 83.4504 143.148 87.2452 159.818 93.0731C181.639 100.663 190.448 109.743 190.448 126.414C190.448 147.015 178.115 159.077 153.448 159.077ZM237.165 159.077C220.359 159.077 207.619 152.978 197.048 142.136C199.894 137.392 205.586 130.209 209.652 126.549C218.597 134.275 229.304 139.831 238.927 139.831C247.601 139.831 253.565 135.223 253.565 127.363C253.565 119.366 250.583 115.571 231.066 108.795C211.008 101.883 201.656 92.531 201.656 76.9449C201.656 56.7507 214.396 45.5015 237.436 45.5015C250.989 45.5015 263.187 51.0583 271.861 60.0034C268.88 64.8825 264.136 70.3038 259.392 74.2342C251.532 67.4576 245.297 64.6115 236.352 64.4759C227.678 64.3404 222.799 68.813 222.799 75.8606C222.799 83.4504 226.865 87.2452 243.535 93.0731C265.356 100.663 274.165 109.743 274.165 126.414C274.165 147.015 261.832 159.077 237.165 159.077ZM354.223 66.5089C348.938 66.78 311.531 66.78 305.974 66.5089C306.11 72.2012 306.245 82.095 306.245 93.3442C320.611 93.2086 343.787 93.2086 348.26 93.6152C348.802 100.256 348.802 106.626 348.26 112.996C343.787 113.267 320.747 113.403 306.245 113.267C306.245 131.429 306.11 149.319 305.974 157.044C300.146 157.857 290.659 157.857 284.56 157.044C284.289 134.41 284.289 69.8972 284.56 47.1279C296.758 46.7213 343.516 46.7213 354.223 47.1279C354.901 52.007 354.765 61.4943 354.223 66.5089ZM359.582 157.044C359.175 150.538 359.175 144.711 359.582 138.205C373.813 124.652 388.044 110.015 396.853 99.8497C405.392 90.0914 407.018 85.4833 407.018 78.5712C407.018 70.4393 402.003 64.8825 393.058 64.8825C384.791 64.8825 380.047 69.2196 376.523 76.2672C371.102 74.3698 363.512 69.8972 358.904 66.1023C365.952 52.4136 377.066 45.5015 393.058 45.5015C415.963 45.5015 427.89 58.6481 427.89 76.8093C427.89 88.7361 425.044 98.4944 413.524 111.776C408.509 117.604 399.428 127.092 388.45 137.799C398.48 137.527 421.52 137.527 429.787 137.799C430.194 143.626 430.194 152.165 429.787 157.044C421.384 157.586 370.425 157.586 359.582 157.044ZM514.357 118.553C514.764 124.381 514.764 130.886 514.357 136.579C512.324 136.714 507.038 136.714 500.126 136.85C500.126 146.473 499.991 153.927 499.855 157.586C496.196 157.993 484.133 157.993 480.474 157.586C480.339 153.656 480.203 145.93 480.203 136.85C460.822 136.85 439.679 136.85 434.8 136.579C434.529 130.751 434.529 124.245 434.8 118.282C444.287 101.069 465.972 61.9008 474.782 47.1279C482.507 46.7213 492.536 46.7213 499.855 47.1279C500.126 61.2232 500.262 92.3954 500.262 118.418C506.361 118.553 511.646 118.553 514.357 118.553ZM456.349 118.553C459.873 118.553 469.496 118.418 480.203 118.418C480.203 100.121 480.339 81.2819 480.474 73.9632C472.478 89.8203 464.075 105.135 456.349 118.553Z" fill="white"/>
<defs>
<clipPath id="clip0_1468_1279">
<rect width="86.4938" height="176.487" fill="white" transform="translate(0.0507812 26.5127)"/>
</clipPath>
</defs>
</svg>
