<svg width="84" height="20" viewBox="0 0 84 20" fill="none" xmlns="http://www.w3.org/2000/svg">
<path d="M16.1693 15.2339C16.1693 16.7929 15.7313 17.9733 14.8552 18.7751C13.9792 19.5917 12.7765 20 11.2472 20H4.92205C3.39272 20 2.19005 19.5917 1.31403 18.7751C0.43801 17.9733 0 16.7929 0 15.2339V12.9621H6.74833V13.9644C6.74833 14.6622 7.02301 15.0186 7.57238 15.0334H8.59688C8.89384 15.0334 9.10171 14.9443 9.22049 14.7661C9.35412 14.5731 9.42093 14.3059 9.42093 13.9644V13.9421C9.42093 13.7045 9.35412 13.4818 9.22049 13.2739C9.08686 13.0661 8.89384 12.9176 8.64143 12.8285L2.76169 10.6236C1.93022 10.3267 1.26206 9.85152 0.757238 9.19822C0.252413 8.54492 0 7.70601 0 6.68151V4.76615C0 3.20713 0.43801 2.02673 1.31403 1.22494C2.19005 0.408315 3.39272 0 4.92205 0H11.2472C12.7765 0 13.9792 0.408315 14.8552 1.22494C15.7313 2.02673 16.1693 3.20713 16.1693 4.76615V7.26058H9.42093V6.03563C9.42093 5.69414 9.35412 5.4343 9.22049 5.25612C9.10171 5.0631 8.89384 4.96659 8.59688 4.96659H7.57238C7.27543 4.96659 7.06013 5.0631 6.9265 5.25612C6.80772 5.4343 6.74833 5.69414 6.74833 6.03563V6.05791C6.74833 6.7706 7.06013 7.23088 7.68374 7.43875L13.3853 9.37639C13.8307 9.52487 14.2242 9.73274 14.5657 10C14.9072 10.2524 15.1967 10.5419 15.4343 10.8686C15.6719 11.1952 15.85 11.5442 15.9688 11.9154C16.0876 12.2866 16.147 12.6652 16.147 13.0512L16.1693 15.2339Z" fill="white"/>
<path d="M33.6778 15.2339C33.6778 16.7929 33.2398 17.9733 32.3638 18.7751C31.4877 19.5917 30.2851 20 28.7557 20H22.4306C20.9012 20 19.6986 19.5917 18.8226 18.7751C17.9465 17.9733 17.5085 16.7929 17.5085 15.2339V12.9621H24.2569V13.9644C24.2569 14.6622 24.5315 15.0186 25.0809 15.0334H26.1054C26.4024 15.0334 26.6102 14.9443 26.729 14.7661C26.8626 14.5731 26.9295 14.3059 26.9295 13.9644V13.9421C26.9295 13.7045 26.8626 13.4818 26.729 13.2739C26.5954 13.0661 26.4024 12.9176 26.15 12.8285L20.2702 10.6236C19.4387 10.3267 18.7706 9.85152 18.2658 9.19822C17.7609 8.54492 17.5085 7.70601 17.5085 6.68151V4.76615C17.5085 3.20713 17.9465 2.02673 18.8226 1.22494C19.6986 0.408315 20.9012 0 22.4306 0H28.7557C30.2851 0 31.4877 0.408315 32.3638 1.22494C33.2398 2.02673 33.6778 3.20713 33.6778 4.76615V7.26058H26.9295V6.03563C26.9295 5.69414 26.8626 5.4343 26.729 5.25612C26.6102 5.0631 26.4024 4.96659 26.1054 4.96659H25.0809C24.784 4.96659 24.5687 5.0631 24.435 5.25612C24.3162 5.4343 24.2569 5.69414 24.2569 6.03563V6.05791C24.2569 6.7706 24.5687 7.23088 25.1923 7.43875L30.8938 9.37639C31.3393 9.52487 31.7327 9.73274 32.0742 10C32.4157 10.2524 32.7053 10.5419 32.9428 10.8686C33.1804 11.1952 33.3586 11.5442 33.4773 11.9154C33.5961 12.2866 33.6555 12.6652 33.6555 13.0512L33.6778 15.2339Z" fill="white"/>
<path d="M49.1819 14.1871H42.2776V19.8886H35.1061V0.111358H49.1819V5.72383H42.2776V8.57461H49.1819V14.1871Z" fill="white"/>
<path d="M65.9164 19.8886H50.4821V16.5033C50.4821 16.0876 50.5712 15.6644 50.7494 15.2339C50.9424 14.7884 51.2245 14.395 51.5957 14.0535L58.1882 8.04009C58.4851 7.74313 58.7301 7.44618 58.9231 7.14922C59.131 6.83742 59.2349 6.46622 59.2349 6.03563C59.2349 5.69414 59.1978 5.47142 59.1236 5.36748C59.0493 5.2487 58.886 5.18931 58.6336 5.18931H57.8986C57.6759 5.20416 57.52 5.26355 57.4309 5.36748C57.3418 5.47142 57.2973 5.69414 57.2973 6.03563V7.55011H50.3262V4.76615C50.3262 3.20713 50.7643 2.02673 51.6403 1.22494C52.5163 0.408315 53.719 0 55.2483 0H60.883C62.4124 0 63.615 0.408315 64.4911 1.22494C65.3671 2.02673 65.8051 3.20713 65.8051 4.76615V6.43653C65.8051 7.00074 65.7011 7.50557 65.4933 7.951C65.3003 8.38159 64.9513 8.84187 64.4465 9.33185L58.7449 14.4989H65.9164V19.8886Z" fill="white"/>
<path d="M81.5066 19.8886H75.0033V16.637H66.8073V11.4699L71.4844 0.111358H81.5066V11.4699H83.2216V16.637H81.5066V19.8886ZM75.226 11.4699V5.92428L73.0879 11.4699H75.226Z" fill="white"/>
</svg>
