<svg width="182" height="100%" viewBox="0 0 155 20" fill="none" xmlns="http://www.w3.org/2000/svg" preserveAspectRatio="xMidYMin slice">
<g clip-path="url(#clip0_1453_836)">
<path d="M7.35097 9.7941C7.35097 9.7941 2.53937 10.4016 2.58957 7.69798C2.64863 4.50852 6.0656 2.03929 8.75108 1.35889C8.75108 1.35889 5.73614 1.91897 3.69312 3.29403C1.65011 4.66908 0.00195312 6.58494 0.00195312 8.20608C0.00195312 9.82722 1.66699 10.6128 2.42463 10.7436C3.18227 10.8744 4.7642 10.9566 7.35097 9.7941Z" fill="white"/>
<path d="M0.455078 18.6367C0.455078 18.6367 4.62378 17.1456 7.93487 14.1665C11.246 11.1875 11.8387 6.59368 5.02412 7.9113C5.02412 7.9113 7.81169 6.76221 9.82475 6.76221C11.8378 6.76221 14.1601 7.13951 14.1601 9.45866C14.1618 12.6108 8.14579 18.306 0.455078 18.6367Z" fill="white"/>
<path d="M12.6683 2.62172C13.1125 3.38639 12.762 4.41391 11.8854 4.91656C11.0088 5.41921 9.93853 5.2075 9.49432 4.44283C9.05012 3.67817 9.4167 2.6779 10.2768 2.148C11.0252 1.68685 12.2241 1.85706 12.6683 2.62172Z" fill="white"/>
</g>
<path d="M30.3172 5.19936C30.309 7.16271 31.4888 9.07698 33.791 9.86232L32.7915 11.2857C31.1938 10.6886 30.055 9.53509 29.4241 8.07894C28.7932 9.70689 27.5807 10.9831 25.8437 11.6293L24.877 10.1895C27.2611 9.38784 28.4737 7.34268 28.4819 5.183V3.49779H30.3172V5.19936ZM27.5643 17.0776V12.382H29.4159V15.6051H37.6582V17.0776H27.5643ZM32.5621 7.34268V5.85381H35.5116V2.59792H37.3304V13.5763H35.5116V7.34268H32.5621Z" fill="white"/>
<path d="M51.7339 2.59792V13.4782H49.9314V2.59792H51.7339ZM40.1816 5.05211V3.59596H47.0147V8.16075H42.0005V10.0259C44.6796 10.0259 46.4493 9.94412 48.4894 9.56781L48.686 11.024C46.4493 11.4412 44.5076 11.5148 41.4761 11.5148H40.2144V6.7864H45.2122V5.05211H40.1816ZM41.8694 17.0776V12.5946H43.7047V15.6051H52.1435V17.0776H41.8694Z" fill="white"/>
<path d="M66.2684 2.59792V13.2818H64.4332V2.59792H66.2684ZM54.1918 7.26088C54.1918 5.10937 55.9369 3.57141 58.19 3.56323C60.4431 3.57141 62.1801 5.10937 62.1719 7.26088C62.1801 9.44511 60.4431 10.9749 58.19 10.9749C55.9369 10.9749 54.1918 9.44511 54.1918 7.26088ZM55.9779 7.26088C55.9697 8.56978 56.9201 9.38784 58.19 9.38784C59.4272 9.38784 60.3858 8.56978 60.3858 7.26088C60.3858 5.9847 59.4272 5.15028 58.19 5.15028C56.9201 5.15028 55.9697 5.9847 55.9779 7.26088ZM56.4695 17.0776V12.202H58.3047V15.6051H66.6781V17.0776H56.4695Z" fill="white"/>
<path d="M80.8521 2.58156V17.3885H79.0496V9.4042H76.264V7.93169H79.0496V2.58156H80.8521ZM69.1032 13.9854V3.85774H76.0346V5.34661H70.9385V7.99713H75.4447V9.43692H70.9385V12.4801C73.1916 12.4719 74.8793 12.3901 76.7883 12.0874L76.9686 13.56C74.8138 13.8872 72.913 13.969 70.2666 13.9854H69.1032Z" fill="white"/>
<path d="M85.473 3.89046V9.39602C86.8576 9.37148 88.2095 9.26513 89.6842 8.92973L89.8645 10.4022C88.021 10.8113 86.4152 10.9176 84.6537 10.9094H83.6705V3.89046H85.473ZM84.7848 15.8833C87.7589 15.507 89.6597 13.9445 89.6678 12.2674V11.8257H91.4539V12.2674C91.4539 13.9445 93.3547 15.507 96.3534 15.8833L95.6652 17.2903C93.322 16.9549 91.4785 15.9242 90.5609 14.4762C89.6433 15.9242 87.808 16.9549 85.4566 17.2903L84.7848 15.8833ZM88.0948 7.26088V5.80473H90.9296V2.87606H92.6501V11.253H90.9296V7.26088H88.0948ZM93.9282 12.5619V2.59792H95.6652V12.5619H93.9282Z" fill="white"/>
<path d="M109.528 3.93954V5.36297C109.511 7.20361 109.511 9.25695 108.938 12.3492L107.103 12.1529C107.684 9.27331 107.684 7.17089 107.693 5.39569H98.8441V3.93954H109.528ZM97.4349 15.4579V13.969H102.416V8.83156H104.219V13.969H110.937V15.4579H97.4349Z" fill="white"/>
<path d="M125.455 9.43692V10.9258H111.937V9.43692H125.455ZM113.51 14.6398C113.51 12.9219 115.451 11.9484 118.671 11.9566C121.867 11.9484 123.792 12.9219 123.8 14.6398C123.792 16.3823 121.867 17.3558 118.671 17.3558C115.451 17.3558 113.51 16.3823 113.51 14.6398ZM113.592 8.27528V3.05603H123.817V4.52855H115.411V6.81912H123.899V8.27528H113.592ZM115.361 14.6398C115.353 15.5151 116.517 15.9487 118.671 15.9487C120.793 15.9487 121.965 15.5151 121.981 14.6398C121.965 13.8054 120.793 13.3473 118.671 13.3473C116.517 13.3473 115.353 13.8054 115.361 14.6398Z" fill="white"/>
<path d="M135.238 4.00499V5.44478H126.455V4.00499H129.945V2.51611H131.764V4.00499H135.238ZM127.209 8.71703C127.209 7.09726 128.708 6.01742 130.846 6.01742C132.985 6.01742 134.459 7.09726 134.468 8.71703C134.459 10.3368 132.985 11.4166 130.846 11.4166C128.708 11.4166 127.209 10.3368 127.209 8.71703ZM128.257 13.9854V12.5292H138.122V17.3721H136.303V13.9854H128.257ZM128.978 8.71703C128.97 9.55145 129.724 10.0177 130.846 10.0096C131.969 10.0177 132.731 9.55145 132.731 8.71703C132.731 7.88261 131.969 7.39177 130.846 7.39177C129.724 7.39177 128.97 7.88261 128.978 8.71703ZM136.303 11.842V2.58156H138.122V6.50826H140.186V7.99713H138.122V11.842H136.303Z" fill="white"/>
<path d="M153.082 3.93954V5.44478C153.082 7.28542 153.082 9.26513 152.542 12.1693L150.755 11.9893C151.263 9.24877 151.263 7.23634 151.263 5.44478V5.39569H142.3V3.93954H153.082ZM140.94 15.4579V13.969H143.972V9.25695H145.79V13.969H147.675V9.25695H149.461V13.969H154.442V15.4579H140.94Z" fill="white"/>
<defs>
<clipPath id="clip0_1453_836">
<rect width="14.1576" height="17.2775" fill="white" transform="translate(0 1.36182)"/>
</clipPath>
</defs>
</svg>
