<svg width="500" height="500" viewBox="0 0 500 500" fill="none" xmlns="http://www.w3.org/2000/svg">
<rect width="500" height="500" rx="100" fill="#0E0E0E"/>
<g clip-path="url(#clip0_1316_411)">
<path d="M298.22 238.205C309.214 243.041 322.047 238.048 326.883 227.053C331.719 216.058 326.726 203.225 315.731 198.389L198.148 146.675C187.153 141.84 174.32 146.833 169.484 157.828C164.649 168.822 169.642 181.656 180.636 186.491L298.22 238.205Z" fill="#4BE24B"/>
<path d="M301.493 296.068C312.488 300.903 325.321 295.91 330.156 284.916C334.992 273.921 329.999 261.088 319.004 256.252L201.421 204.538C190.426 199.703 177.593 204.696 172.758 215.69C167.922 226.685 172.915 239.518 183.91 244.354L301.493 296.068Z" fill="#2FE35C"/>
<path d="M310.346 121.758C320.748 115.752 324.312 102.451 318.307 92.0493C312.301 81.6473 299 78.0833 288.598 84.0889L178.374 147.727C167.972 153.733 164.408 167.034 170.413 177.436C176.419 187.838 189.72 191.402 200.122 185.396L310.346 121.758Z" fill="#4CFB4C"/>
<path d="M317.531 237.987C328.212 231.82 332.003 218.388 325.997 207.986C319.992 197.584 306.464 194.151 295.783 200.318L182.598 265.665C171.916 271.832 168.126 285.264 174.132 295.666C180.137 306.068 193.665 309.501 204.346 303.334L317.531 237.987Z" fill="#4CFB4C"/>
<path d="M313.666 179.918C324.068 173.912 327.632 160.611 321.626 150.209C315.62 139.807 302.319 136.244 291.917 142.249L181.693 205.887C171.291 211.893 167.727 225.194 173.733 235.596C179.738 245.998 193.039 249.562 203.441 243.556L313.666 179.918Z" fill="#33FB65"/>
<path d="M320.426 295.301C331.345 288.997 335.345 275.485 329.362 265.121C323.378 254.757 309.676 251.466 298.757 257.77L183.056 324.57C172.138 330.874 168.137 344.386 174.121 354.749C180.104 365.113 193.806 368.405 204.725 362.101L320.426 295.301Z" fill="#33FB65"/>
<path d="M171.29 403.181C171.29 415.192 181.027 424.929 193.038 424.929C205.049 424.929 214.786 415.192 214.786 403.181L214.786 284.764C214.786 272.752 205.049 263.015 193.038 263.015C181.027 263.015 171.29 272.752 171.29 284.764L171.29 403.181Z" fill="#4CFB4C"/>
</g>
<defs>
<clipPath id="clip0_1316_411">
<rect width="171.653" height="350" fill="white" transform="translate(164 75)"/>
</clipPath>
</defs>
</svg>
