<svg width="100vw" height="100%" viewBox="0 0 1440 2675" preserveAspectRatio="xMidYMin slice" fill="none"
     xmlns="http://www.w3.org/2000/svg">
    <path d="M1401.69 -11.3095L1401.83 -9.65842L1403.36 -10.2884L1695.32 -130.343L1490.92 110.228L1489.85 111.491L1491.38 112.129L1782.71 233.684L1468.07 259.261L1466.42 259.396L1467.05 260.928L1587.11 552.888L1346.53 348.488L1345.27 347.415L1344.63 348.944L1223.08 640.283L1197.5 325.641L1197.37 323.99L1195.83 324.62L903.875 444.675L1108.27 204.103L1109.35 202.841L1107.82 202.203L816.479 80.6473L1131.12 55.0699L1132.77 54.9357L1132.14 53.4036L1012.09 -238.557L1252.66 -34.1568L1253.92 -33.0842L1254.56 -34.6131L1376.11 -325.952L1401.69 -11.3095Z"
          stroke="#33FB65" stroke-width="2.42017"/>
    <path d="M1170.77 978.588C1149.27 981.125 1115.95 987.122 1096.09 991.966C992.107 1017.34 941.532 1061.86 970.128 1102.92C973.2 1107.3 975.8 1111.22 975.8 1111.68C975.8 1112.14 970.837 1111.22 964.692 1109.61C934.678 1102.23 912.699 1120.91 901.119 1163.58C894.974 1186.42 893.792 1255.85 898.755 1291.83C903.246 1323.2 911.517 1359.42 920.734 1386.41C934.914 1429.08 961.384 1469.22 981.472 1478.44C997.306 1485.82 1018.1 1482.13 1032.05 1469.91L1037.48 1465.06L1033.47 1474.06C1028.27 1486.75 1029.92 1506.81 1037.01 1515.81C1058.99 1543.26 1119.49 1554.56 1201.73 1546.49C1300.05 1537.03 1389.62 1501.97 1408.53 1465.29C1415.62 1451.92 1413.96 1432.77 1404.74 1420.78L1398.13 1412.24L1404.98 1414.32C1417.98 1418.24 1438.07 1416.85 1445.16 1411.55C1471.86 1392.17 1482.97 1351.35 1480.84 1282.61C1477.77 1187.8 1449.65 1098.07 1411.83 1060.71C1390.09 1039.25 1373.55 1036.72 1351.1 1050.56L1340.23 1057.48L1343.53 1049.63C1357.48 1017.11 1331.25 989.66 1277.36 980.433C1257.98 977.204 1191.81 976.05 1170.77 978.588ZM1280.2 985.277C1310.68 991.274 1331.01 1002.12 1338.81 1016.65C1345.19 1028.87 1341.41 1051.71 1330.3 1066.93C1321.32 1079.16 1325.57 1079.16 1338.1 1066.47C1366.46 1037.64 1393.87 1040.41 1418.92 1074.78C1432.87 1094.15 1441.85 1112.37 1451.54 1141.21C1467.85 1188.96 1476.83 1243.16 1476.83 1294.37C1476.83 1391.48 1447.28 1431.39 1395.06 1404.86C1386.31 1400.48 1378.75 1397.02 1378.51 1397.48C1378.04 1397.94 1383.95 1404.4 1391.27 1412.01C1416.09 1436.69 1415.85 1454.91 1390.56 1479.13C1363.39 1505.2 1308.56 1525.73 1231.04 1539.11C1212.13 1542.34 1194.17 1543.26 1155.41 1543.26C1109.33 1543.26 1102.71 1542.8 1085.69 1537.95C1054.5 1529.19 1039.85 1518.58 1035.12 1501.05C1031.81 1490.21 1035.59 1473.83 1044.57 1460.22C1048.59 1454.22 1051.19 1448.69 1050.48 1447.99C1049.77 1447.3 1044.81 1451.69 1039.37 1457.68C988.798 1513.73 932.315 1451.45 905.845 1310.29C899.937 1278.45 898.519 1197.72 903.482 1174.42C910.808 1139.82 924.279 1119.06 943.186 1113.07C954.057 1109.84 973.909 1114.45 988.326 1123.68C993.525 1126.91 998.015 1129.21 998.488 1128.75C998.961 1128.06 993.052 1121.37 985.49 1113.76C956.421 1084.69 961.147 1060.01 1000.61 1034.18C1035.59 1011.11 1105.78 989.66 1167.23 983.201C1192.04 980.664 1263.18 981.817 1280.2 985.277Z"
          fill="#41C441"/>
    <path d="M790.601 913.552C789.547 915.659 789.942 916.58 793.629 918.819C798.369 921.715 815.881 939.359 821.147 946.6C825.887 953.052 834.709 969.905 836.684 976.225C837.606 979.122 838.922 982.282 839.712 983.072C840.371 983.994 840.634 984.784 840.239 984.784C839.712 984.784 840.239 987.154 841.292 990.05C842.346 992.947 843.531 998.477 844.057 1002.3C845.242 1011.38 845.374 1034.29 844.189 1040.08C843.662 1042.59 843.004 1046.4 842.609 1048.64C838.001 1072.61 821.806 1099.6 801.924 1116.19C796.394 1120.8 781.252 1130.14 775.459 1132.51C767.954 1135.54 761.239 1138.04 759.659 1138.44C759.001 1138.57 756.894 1138.97 755.051 1139.36C730.166 1144.89 707.651 1142.65 684.609 1132.12C666.571 1123.96 646.162 1104.21 637.999 1087.09C629.441 1068.92 628.124 1063.65 628.124 1046.01C627.992 1028.37 628.782 1023.89 633.391 1011.51C640.237 993.474 656.301 975.435 672.364 967.535C675.524 966.087 678.947 964.375 680.132 963.717C685.926 960.689 703.174 958.187 712.786 958.845C718.316 959.24 723.714 959.767 724.767 960.03C748.862 966.087 769.139 985.179 774.932 1007.17C776.644 1013.75 776.907 1029.29 775.591 1035.48C772.562 1048.77 759.922 1064.44 747.677 1070.37C738.461 1074.84 721.212 1074.84 713.576 1070.37C701.857 1063.52 695.801 1055.23 695.142 1045.35C694.616 1037.32 697.381 1031 702.911 1027.18C707.782 1023.89 712.654 1023.49 716.341 1026.13C718.711 1027.97 718.711 1028.23 716.736 1031.79C714.102 1036.66 714.497 1041.4 718.184 1044.3C731.219 1054.83 750.311 1040.74 749.126 1021.26C747.414 991.104 708.309 976.489 680.527 995.449C662.094 1008.09 652.087 1033.24 656.827 1055.62C659.197 1067.34 665.517 1080.37 672.496 1088.27C682.107 1099.2 698.434 1109.08 711.732 1111.97C717.394 1113.16 742.674 1113.29 747.151 1112.24C758.342 1109.34 768.876 1104.73 777.171 1099.07C784.017 1094.46 796.394 1082.48 800.476 1076.29C805.216 1069.45 811.536 1056.54 812.194 1052.59C812.589 1050.35 813.774 1045.88 814.696 1042.59C817.856 1032.32 817.329 1010.72 813.774 997.292C813.511 996.502 812.984 994.132 812.326 992.025C808.902 978.859 791.786 953.184 781.384 945.152C779.014 943.44 775.591 940.807 773.747 939.227C765.716 933.039 747.809 924.48 737.671 922.11C722.134 918.424 703.042 917.765 686.716 920.399C673.549 922.505 656.301 929.615 642.476 938.569C622.199 951.867 603.897 974.909 595.339 997.95C586.649 1021.65 584.937 1051.54 590.994 1075.24C594.549 1089.2 599.816 1102.76 603.897 1108.81C605.214 1110.66 606.267 1112.63 606.267 1113.03C606.267 1117.11 627.861 1141.99 639.842 1151.87C644.714 1155.82 645.109 1155.95 646.689 1153.84C649.059 1150.68 648.927 1150.29 644.846 1147.79C639.842 1144.89 623.647 1127.91 617.327 1119.08C612.324 1111.97 611.534 1110.66 606.004 1100.91C602.844 1095.25 596.129 1074.98 594.812 1067.34C593.627 1059.7 593.627 1028.76 594.812 1021.65C599.421 994.922 615.221 968.325 636.814 950.55C650.244 939.359 658.802 934.75 676.709 928.694C681.581 926.982 698.829 924.612 706.992 924.349C715.551 924.085 720.817 924.744 735.301 927.509C739.777 928.43 744.649 930.274 757.157 936.199C770.192 942.387 786.256 956.87 795.341 970.695C802.056 980.702 808.507 996.765 809.956 1006.9C810.877 1013.88 810.877 1030.74 809.824 1036.79C808.639 1044.56 807.586 1048.64 806.532 1051.28C800.344 1065.23 797.579 1070.63 793.102 1076.29C788.626 1081.82 785.202 1085.11 772.694 1095.25C771.904 1095.91 768.612 1097.75 765.452 1099.33C737.934 1112.76 707.387 1110 684.872 1091.96C677.367 1085.9 668.282 1072.74 664.464 1062.47C661.831 1055.23 660.646 1034.69 662.621 1031.53C663.147 1030.87 663.674 1029.16 663.806 1027.97C665.386 1018.23 678.552 1002.43 690.007 996.634C695.274 994 698.434 993.342 706.992 993.342C722.661 993.342 727.796 995.449 736.354 1005.19C744.517 1014.41 746.097 1025.21 740.567 1034.16C735.827 1041.8 726.084 1044.56 721.081 1039.69C719.237 1037.71 719.237 1037.32 721.212 1035.08C728.322 1027.18 717.657 1015.73 706.334 1019.02C689.876 1023.76 684.082 1044.17 694.484 1060.89C700.409 1070.5 710.152 1077.08 722.002 1079.19C729.639 1080.64 732.141 1080.51 744.254 1077.74C750.047 1076.42 761.239 1069.05 767.296 1062.6C786.651 1041.93 787.967 1007.96 770.324 984.125C760.186 970.432 744.254 958.582 733.062 956.475C731.746 956.212 730.561 955.949 730.429 955.817C729.902 955.422 728.849 955.159 721.476 953.974C708.177 951.735 691.587 953.184 679.869 957.397C663.016 963.717 644.187 979.385 634.839 995.054C632.206 999.662 629.967 1003.88 629.967 1004.4C629.967 1004.93 629.046 1007.3 627.992 1009.54C626.807 1011.78 625.622 1014.67 625.359 1015.99C625.096 1017.31 624.174 1021.26 623.252 1024.94C620.619 1036 621.277 1056.28 624.701 1069.05C630.757 1091.43 642.081 1108.81 660.251 1123.69C667.361 1129.49 683.424 1138.97 685.926 1138.83C686.321 1138.83 688.296 1139.62 690.534 1140.81C692.641 1141.86 699.224 1143.97 705.149 1145.29C718.184 1148.31 747.546 1148.18 758.342 1145.02C783.359 1137.78 805.084 1124.09 820.226 1106.05C827.204 1097.89 838.001 1082.09 838.001 1080.11C838.001 1079.85 839.449 1076.56 841.161 1072.74C843.926 1066.81 845.637 1061.94 846.691 1056.81C846.822 1056.28 847.086 1055.62 847.217 1055.23C847.349 1054.83 847.612 1054.17 847.744 1053.51C854.196 1027.05 851.036 992.815 839.712 967.799C831.022 948.575 817.197 930.405 800.739 916.449C793.497 910.392 792.576 909.997 790.601 913.552Z"
          fill="#307630"/>
    <path d="M294.521 1228.51L294.307 1229.27L294.905 1229.77L588.227 1476.94L219.29 1371.98L218.537 1371.77L218.033 1372.36L-29.1372 1665.69L75.8216 1296.75L76.0356 1296L75.4374 1295.49L-217.884 1048.32L151.053 1153.28L151.805 1153.5L152.309 1152.9L399.48 859.576L294.521 1228.51Z"
          stroke="#33FB65" stroke-width="2.42017"/>
    <path d="M1099.85 667.482L1089.6 668.741L1091.09 680.877L1080.85 682.136L1082.3 693.968L1070.58 695.407L1072.26 709.118L1061.27 710.467L1062.84 723.264"
          stroke="#33FB65" stroke-width="4.84034"/>
    <path d="M656.285 1041.4L643.442 1048.81L652.223 1064.02L639.379 1071.44L647.94 1086.27L633.247 1094.75L643.168 1111.93L629.4 1119.88L638.658 1135.92"
          stroke="#33FB65" stroke-width="4.84034"/>
    <path d="M787.164 1677.42L785.871 1692.19L803.367 1693.72L802.074 1708.5L819.131 1709.99L817.652 1726.89L837.417 1728.62L836.031 1744.46L854.478 1746.07"
          stroke="#33FB65" stroke-width="4.84034"/>
    <path d="M225.324 645.459L218.606 662.087L236.354 669.257L229.636 685.885L246.938 692.876L239.253 711.897L259.302 719.998L252.101 737.822L270.814 745.383"
          stroke="#33FB65" stroke-width="4.84034"/>
    <path d="M-195.554 62.8314C-217.228 122.378 -246.994 172.534 -277.553 205.496C-280.055 208.194 -282.561 210.776 -285.067 213.238C-285.404 209.741 -285.664 206.152 -285.846 202.477C-288.068 157.585 -278.631 100.029 -256.958 40.4823C-235.285 -19.0644 -205.518 -69.2206 -174.96 -102.182C-172.458 -104.88 -169.952 -107.463 -167.445 -109.924C-167.108 -106.428 -166.848 -102.839 -166.666 -99.1632C-164.444 -54.2708 -173.881 3.2847 -195.554 62.8314ZM-178.618 -155.54C-173.246 -143.95 -169.609 -129.558 -167.764 -112.992C-170.76 -110.101 -173.752 -107.044 -176.734 -103.827C-207.561 -70.5771 -237.476 -20.12 -259.232 39.6546C-280.988 99.4291 -290.505 157.311 -288.264 202.597C-288.047 206.978 -287.72 211.243 -287.283 215.383C-299.344 226.888 -311.382 235.575 -322.947 241C-337.617 247.881 -351.439 249.478 -363.608 245.049C-375.776 240.62 -385.338 230.512 -392.153 215.811C-398.971 201.104 -402.994 181.883 -404.106 159.434C-406.328 114.542 -396.89 56.9862 -375.217 -2.56052C-353.544 -62.1072 -323.777 -112.263 -293.219 -145.225C-277.938 -161.707 -262.501 -173.845 -247.825 -180.729C-233.155 -187.61 -219.332 -189.207 -207.164 -184.778C-194.995 -180.349 -185.433 -170.241 -178.618 -155.54ZM-164.249 -99.2828C-164.466 -103.664 -164.793 -107.929 -165.23 -112.069C-153.168 -123.574 -141.131 -132.261 -129.565 -137.686C-114.895 -144.567 -101.073 -146.164 -88.9046 -141.735C-76.7362 -137.306 -67.1739 -127.198 -60.3591 -112.497C-54.9868 -100.908 -51.3494 -86.5154 -49.5049 -69.9495C-52.5009 -67.059 -55.4933 -64.0015 -58.4757 -60.7846C-89.302 -27.5345 -119.217 22.9226 -140.973 82.6971C-162.73 142.472 -172.246 200.353 -170.005 245.639C-169.788 250.02 -169.461 254.286 -169.024 258.426C-181.085 269.931 -193.123 278.618 -204.688 284.043C-219.358 290.924 -233.18 292.52 -245.349 288.091C-257.517 283.663 -267.079 273.555 -273.894 258.853C-279.266 247.264 -282.904 232.872 -284.748 216.305C-281.752 213.415 -278.76 210.358 -275.778 207.141C-244.952 173.891 -215.036 123.434 -193.28 63.6592C-171.524 3.8846 -162.007 -53.9969 -164.249 -99.2828ZM-56.7009 -59.1392C-54.1989 -61.838 -51.6927 -64.4203 -49.1863 -66.8821C-48.8487 -63.3852 -48.5887 -59.796 -48.4067 -56.1203C-46.1847 -11.228 -55.6219 46.3275 -77.2951 105.874C-98.9684 165.421 -128.735 215.577 -159.293 248.538C-161.795 251.237 -164.302 253.819 -166.808 256.281C-167.146 252.784 -167.406 249.195 -167.588 245.519C-169.81 200.627 -160.372 143.072 -138.699 83.5249C-117.026 23.9782 -87.2593 -26.178 -56.7009 -59.1392ZM-166.489 259.349C-163.493 256.458 -160.501 253.401 -157.519 250.184C-126.692 216.934 -96.7771 166.477 -75.0209 106.702C-53.2647 46.9274 -43.748 -10.9541 -45.9895 -56.24C-46.2064 -60.6213 -46.5334 -64.887 -46.9705 -69.027C-34.9092 -80.5317 -22.8717 -89.2187 -11.3067 -94.6434C3.36349 -101.525 17.1858 -103.121 29.3542 -98.6923C41.5226 -94.2634 51.0849 -84.1556 57.8997 -69.4543C63.272 -57.8648 66.9095 -43.4725 68.7539 -26.9063C65.758 -24.0159 62.7657 -20.9585 59.7835 -17.7418C28.9572 15.5084 -0.958069 65.9654 -22.7142 125.74C-44.4704 185.515 -53.9871 243.396 -51.7456 288.682C-51.5287 293.063 -51.2018 297.329 -50.7647 301.468C-62.8261 312.973 -74.8638 321.66 -86.4289 327.085C-101.099 333.966 -114.921 335.563 -127.09 331.134C-139.258 326.705 -148.82 316.597 -155.635 301.896C-161.008 290.307 -164.645 275.915 -166.489 259.349ZM61.5583 -16.0964C64.0602 -18.795 66.5663 -21.3772 69.0725 -23.8389C69.4101 -20.3421 69.6701 -16.7532 69.852 -13.0777C72.0741 31.8146 62.6369 89.3701 40.9636 148.917C19.2904 208.464 -10.4763 258.62 -41.0347 291.581C-43.5366 294.28 -46.0427 296.862 -48.5489 299.323C-48.8865 295.827 -49.1465 292.238 -49.3284 288.562C-51.5504 243.67 -42.1133 186.114 -20.44 126.568C1.23322 67.021 30.9999 16.8648 61.5583 -16.0964ZM-48.2303 302.391C-45.2344 299.5 -42.2421 296.443 -39.2599 293.226C-8.43359 259.976 21.4817 209.519 43.2379 149.745C64.994 89.97 74.5107 32.0885 72.2692 -13.1974C72.0524 -17.5784 71.7254 -21.8439 71.2883 -25.9838C83.3498 -37.4887 95.3874 -46.1758 106.953 -51.6006C121.623 -58.4819 135.445 -60.0784 147.613 -55.6495C159.782 -51.2206 169.344 -41.1127 176.159 -26.4115C181.531 -14.822 185.169 -0.429764 187.013 16.1363C184.017 19.0267 181.025 22.0841 178.043 25.3008C147.216 58.5509 117.301 109.008 95.545 168.783C73.7888 228.557 64.2721 286.439 66.5136 331.725C66.7305 336.106 67.0575 340.371 67.4946 344.511C55.4331 356.016 43.3954 364.703 31.8303 370.128C17.1601 377.009 3.3378 378.606 -8.83057 374.177C-20.9989 369.748 -30.5612 359.64 -37.376 344.939C-42.7484 333.349 -46.3858 318.957 -48.2303 302.391ZM179.818 26.9462C182.319 24.2475 184.826 21.6654 187.332 19.2037C187.669 22.7005 187.929 26.2896 188.111 29.9651C190.333 74.8574 180.896 132.413 159.223 191.96C137.55 251.506 107.783 301.663 77.2245 334.624C74.7227 337.322 72.2166 339.905 69.7103 342.366C69.3728 338.869 69.1128 335.28 68.9308 331.605C66.7088 286.713 76.146 229.157 97.8192 169.61C119.492 110.064 149.259 59.9074 179.818 26.9462ZM70.029 345.434C73.0248 342.543 76.0171 339.486 78.9993 336.269C109.826 303.019 139.741 252.562 161.497 192.787C183.253 133.013 192.77 75.1313 190.528 29.8454C190.312 25.4643 189.985 21.1987 189.547 17.0588C201.609 5.55392 213.647 -3.13318 225.212 -8.558C239.882 -15.4393 253.704 -17.0358 265.873 -12.6069C278.041 -8.17798 287.603 1.92986 294.418 16.6311C299.79 28.2206 303.428 42.6129 305.272 59.179C302.276 62.0695 299.284 65.127 296.302 68.3438C265.475 101.594 235.56 152.051 213.804 211.826C192.048 271.6 182.531 329.482 184.772 374.768C184.989 379.149 185.316 383.414 185.753 387.554C173.692 399.059 161.654 407.746 150.09 413.171C135.419 420.052 121.597 421.648 109.429 417.219C97.2603 412.791 87.698 402.683 80.8832 387.982C75.5108 376.392 71.8734 362 70.029 345.434ZM199.142 431.025C193.77 419.435 190.132 405.043 188.288 388.477C191.284 385.586 194.276 382.529 197.259 379.312C228.085 346.062 258 295.605 279.756 235.83C301.512 176.055 311.029 118.174 308.788 72.888C308.571 68.5069 308.244 64.2413 307.807 60.1014C319.868 48.5968 331.906 39.9098 343.471 34.4851C358.141 27.6038 371.963 26.0073 384.131 30.4362C396.3 34.8651 405.862 44.9729 412.677 59.6741C418.049 71.2636 421.687 85.6559 423.531 102.222C420.535 105.112 417.543 108.17 414.561 111.386C383.734 144.637 353.819 195.094 332.063 254.868C310.307 314.643 300.79 372.524 303.032 417.81C303.248 422.191 303.576 426.457 304.013 430.597C291.951 442.102 279.913 450.789 268.348 456.214C253.678 463.095 239.856 464.691 227.688 460.263C215.519 455.834 205.957 445.726 199.142 431.025ZM305.591 62.2464C305.929 65.7432 306.189 69.3322 306.37 73.0077C308.593 117.9 299.155 175.456 277.482 235.002C255.809 294.549 226.042 344.705 195.484 377.666C192.982 380.365 190.476 382.947 187.969 385.409C187.632 381.912 187.372 378.323 187.19 374.648C184.968 329.756 194.405 272.2 216.078 212.653C237.751 153.107 267.518 102.951 298.076 69.9893C300.578 67.2905 303.085 64.7082 305.591 62.2464ZM416.336 113.032C418.837 110.333 421.344 107.751 423.85 105.289C424.187 108.786 424.447 112.375 424.629 116.051C426.851 160.943 417.414 218.499 395.741 278.045C374.068 337.592 344.301 387.748 313.743 420.709C311.241 423.408 308.735 425.99 306.228 428.452C305.891 424.955 305.631 421.366 305.449 417.691C303.227 372.798 312.664 315.243 334.337 255.696C356.01 196.149 385.777 145.993 416.336 113.032ZM317.401 474.067C312.029 462.478 308.391 448.085 306.547 431.519C309.543 428.629 312.535 425.572 315.517 422.355C346.344 389.105 376.259 338.648 398.015 278.873C419.771 219.099 429.288 161.217 427.047 115.931C426.83 111.55 426.503 107.284 426.066 103.144C438.127 91.6395 450.165 82.9525 461.73 77.5276C476.4 70.6463 490.222 69.0498 502.391 73.4788C514.559 77.9077 524.121 88.0155 530.936 102.717C537.754 117.424 541.777 136.644 542.888 159.093C545.111 203.986 535.673 261.541 514 321.088C492.327 380.635 462.56 430.791 432.002 463.752C416.721 480.235 401.284 492.372 386.608 499.256C371.937 506.138 358.115 507.734 345.947 503.305C333.778 498.876 324.216 488.768 317.401 474.067Z"
          stroke="#33FB65" stroke-width="2.42017"/>
    <path d="M198.163 2528.08C257.323 2550.79 306.952 2581.43 339.375 2612.56C342.029 2615.1 344.567 2617.66 346.985 2620.2C343.483 2620.48 339.89 2620.68 336.212 2620.8C291.287 2622.23 233.905 2611.79 174.746 2589.08C115.587 2566.38 65.9576 2535.74 33.5347 2504.61C30.88 2502.06 28.3419 2499.51 25.9243 2496.96C29.4264 2496.68 33.0194 2496.49 36.6976 2496.37C81.6219 2494.93 139.004 2505.37 198.163 2528.08ZM350.058 2619.94C347.22 2616.89 344.215 2613.85 341.051 2610.81C308.344 2579.41 258.416 2548.62 199.031 2525.82C139.645 2503.02 81.9383 2492.5 36.6202 2493.95C32.2359 2494.09 27.9653 2494.34 23.8183 2494.71C12.5258 2482.45 4.05026 2470.26 -1.17185 2458.6C-7.79609 2443.81 -9.15111 2429.97 -4.5105 2417.88C0.130116 2405.79 10.4033 2396.4 25.2212 2389.85C36.9028 2384.68 51.3565 2381.29 67.9524 2379.74C70.79 2382.78 73.7946 2385.83 76.9587 2388.86C109.666 2420.27 159.593 2451.06 218.979 2473.85C278.365 2496.65 336.071 2507.18 381.389 2505.72C385.774 2505.58 390.044 2505.33 394.191 2504.97C405.484 2517.23 413.959 2529.42 419.181 2541.07C425.806 2555.86 427.161 2569.71 422.52 2581.8C417.879 2593.89 407.606 2603.27 392.788 2609.83C381.107 2615 366.653 2618.38 350.058 2619.94ZM336.289 2623.21C340.673 2623.07 344.944 2622.82 349.091 2622.46C360.384 2634.72 368.859 2646.9 374.081 2658.56C380.706 2673.35 382.061 2687.2 377.42 2699.29C372.779 2711.38 362.506 2720.76 347.688 2727.32C332.864 2733.88 313.576 2737.57 291.112 2738.29C246.187 2739.72 188.805 2729.28 129.646 2706.57C70.4864 2683.87 20.8574 2653.23 -11.5655 2622.1C-27.7789 2606.53 -39.6452 2590.89 -46.2721 2576.09C-52.8963 2561.3 -54.2513 2547.46 -49.6107 2535.37C-44.9701 2523.28 -34.6969 2513.89 -19.879 2507.34C-8.19754 2502.17 6.25603 2498.78 22.8518 2497.23C25.6895 2500.27 28.6943 2503.32 31.8585 2506.35C64.5657 2537.76 114.493 2568.55 173.879 2591.34C233.264 2614.14 290.971 2624.67 336.289 2623.21ZM81.7204 2376.46C77.3362 2376.6 73.0657 2376.85 68.9189 2377.22C57.6262 2364.96 49.1505 2352.77 43.9284 2341.11C37.3041 2326.32 35.9491 2312.48 40.5897 2300.39C45.2303 2288.3 55.5035 2278.91 70.3214 2272.36C82.0029 2267.19 96.4564 2263.8 113.052 2262.25C115.89 2265.29 118.895 2268.34 122.059 2271.38C154.766 2302.78 204.693 2333.57 264.079 2356.36C323.465 2379.16 381.172 2389.69 426.49 2388.24C430.874 2388.09 435.145 2387.84 439.291 2387.48C450.584 2399.74 459.059 2411.93 464.282 2423.58C470.906 2438.37 472.261 2452.22 467.62 2464.31C462.98 2476.4 452.706 2485.78 437.889 2492.34C426.207 2497.51 411.753 2500.89 395.157 2502.45C392.32 2499.4 389.315 2496.36 386.151 2493.32C353.444 2461.92 303.517 2431.13 244.131 2408.33C184.745 2385.54 127.038 2375.01 81.7204 2376.46ZM71.0248 2379.47C74.5269 2379.19 78.1198 2379 81.7978 2378.88C126.722 2377.44 184.104 2387.88 243.264 2410.59C302.423 2433.3 352.052 2463.94 384.475 2495.07C387.129 2497.61 389.667 2500.17 392.085 2502.71C388.583 2502.99 384.99 2503.19 381.312 2503.31C336.388 2504.74 279.006 2494.3 219.846 2471.59C160.687 2448.89 111.058 2418.25 78.6349 2387.12C75.9804 2384.57 73.4424 2382.02 71.0248 2379.47ZM126.821 2258.97C122.436 2259.11 118.166 2259.36 114.019 2259.73C102.726 2247.47 94.2507 2235.28 89.0285 2223.62C82.4043 2208.83 81.0493 2194.99 85.6899 2182.9C90.3305 2170.81 100.604 2161.42 115.422 2154.87C127.103 2149.7 141.557 2146.31 158.153 2144.76C160.99 2147.8 163.995 2150.85 167.159 2153.88C199.866 2185.29 249.794 2216.08 309.179 2238.87C368.565 2261.67 426.272 2272.2 471.59 2270.74C475.974 2270.6 480.244 2270.35 484.391 2269.99C495.684 2282.25 504.16 2294.44 509.382 2306.09C516.006 2320.88 517.361 2334.73 512.721 2346.82C508.08 2358.91 497.807 2368.29 482.989 2374.85C471.307 2380.02 456.854 2383.4 440.258 2384.96C437.42 2381.91 434.415 2378.87 431.251 2375.83C398.544 2344.43 348.617 2313.64 289.231 2290.84C229.845 2268.04 172.139 2257.52 126.821 2258.97ZM116.125 2261.98C119.627 2261.7 123.22 2261.51 126.898 2261.39C171.822 2259.95 229.204 2270.39 288.364 2293.1C347.523 2315.81 397.152 2346.45 429.575 2377.58C432.23 2380.12 434.768 2382.68 437.185 2385.22C433.683 2385.5 430.09 2385.7 426.412 2385.82C381.488 2387.25 324.106 2376.81 264.946 2354.1C205.787 2331.4 156.158 2300.76 123.735 2269.63C121.08 2267.08 118.542 2264.53 116.125 2261.98ZM171.921 2141.48C167.537 2141.62 163.266 2141.87 159.119 2142.24C147.827 2129.98 139.351 2117.79 134.129 2106.13C127.505 2091.34 126.149 2077.5 130.79 2065.41C135.431 2053.32 145.704 2043.93 160.522 2037.38C172.203 2032.21 186.657 2028.82 203.253 2027.27C206.09 2030.31 209.095 2033.36 212.259 2036.4C244.967 2067.8 294.894 2098.59 354.28 2121.38C413.665 2144.18 471.372 2154.71 516.69 2153.26C521.074 2153.11 525.345 2152.86 529.492 2152.5C540.784 2164.76 549.26 2176.95 554.482 2188.6C561.106 2203.39 562.461 2217.24 557.821 2229.33C553.18 2241.42 542.907 2250.8 528.089 2257.36C516.407 2262.53 501.954 2265.91 485.358 2267.47C482.52 2264.42 479.516 2261.38 476.351 2258.34C443.644 2226.94 393.717 2196.15 334.331 2173.35C274.945 2150.56 217.239 2140.03 171.921 2141.48ZM161.225 2144.49C164.727 2144.21 168.32 2144.02 171.998 2143.9C216.923 2142.46 274.305 2152.9 333.464 2175.61C392.623 2198.32 442.252 2228.96 474.675 2260.09C477.33 2262.63 479.868 2265.19 482.285 2267.73C478.783 2268.01 475.19 2268.21 471.512 2268.33C426.588 2269.76 369.206 2259.32 310.047 2236.61C250.887 2213.91 201.258 2183.27 168.835 2152.14C166.181 2149.59 163.643 2147.04 161.225 2144.49ZM217.021 2023.99C212.637 2024.13 208.366 2024.38 204.219 2024.75C192.927 2012.49 184.451 2000.3 179.229 1988.64C172.605 1973.85 171.25 1960.01 175.89 1947.92C180.531 1935.83 190.804 1926.44 205.622 1919.89C217.303 1914.72 231.757 1911.33 248.353 1909.78C251.19 1912.82 254.195 1915.87 257.359 1918.91C290.066 1950.31 339.994 1981.1 399.379 2003.89C458.765 2026.69 516.472 2037.22 561.79 2035.77C566.174 2035.62 570.445 2035.37 574.592 2035.01C585.884 2047.27 594.36 2059.46 599.582 2071.11C606.207 2085.9 607.562 2099.75 602.921 2111.84C598.28 2123.93 588.007 2133.31 573.189 2139.87C561.508 2145.04 547.054 2148.42 530.458 2149.98C527.621 2146.93 524.616 2143.89 521.452 2140.85C488.745 2109.45 438.817 2078.66 379.431 2055.86C320.046 2033.07 262.339 2022.54 217.021 2023.99ZM206.325 2027C209.827 2026.72 213.42 2026.53 217.098 2026.41C262.023 2024.97 319.405 2035.41 378.564 2058.12C437.724 2080.83 487.353 2111.47 519.776 2142.6C522.43 2145.14 524.968 2147.7 527.386 2150.24C523.884 2150.52 520.291 2150.72 516.613 2150.84C471.688 2152.27 414.306 2141.83 355.147 2119.13C295.987 2096.42 246.358 2065.78 213.936 2034.65C211.281 2032.1 208.743 2029.55 206.325 2027ZM618.289 2022.38C606.608 2027.55 592.154 2030.93 575.558 2032.49C572.721 2029.44 569.716 2026.4 566.552 2023.36C533.845 1991.96 483.917 1961.17 424.532 1938.37C365.146 1915.58 307.439 1905.05 262.121 1906.5C257.737 1906.64 253.466 1906.89 249.319 1907.26C238.027 1895 229.551 1882.81 224.329 1871.15C217.704 1856.36 216.349 1842.52 220.99 1830.43C225.631 1818.34 235.904 1808.95 250.722 1802.4C265.546 1795.84 284.834 1792.15 307.298 1791.43C352.223 1789.99 409.605 1800.43 468.764 1823.14C527.924 1845.85 577.553 1876.49 609.976 1907.62C626.189 1923.18 638.055 1938.83 644.682 1953.62C651.306 1968.41 652.661 1982.26 648.021 1994.35C643.38 2006.44 633.107 2015.82 618.289 2022.38ZM564.876 2025.11C567.53 2027.66 570.068 2030.21 572.486 2032.75C568.984 2033.03 565.391 2033.23 561.712 2033.35C516.788 2034.78 459.406 2024.34 400.247 2001.63C341.087 1978.93 291.458 1948.29 259.035 1917.16C256.381 1914.61 253.843 1912.06 251.425 1909.51C254.927 1909.23 258.52 1909.04 262.199 1908.92C307.123 1907.48 364.505 1917.92 423.664 1940.63C482.824 1963.34 532.453 1993.98 564.876 2025.11Z"
          stroke="#33FB65" stroke-width="2.42017"/>
    <path d="M1362.96 2105.03C1361.23 2108.48 1361.88 2109.99 1367.92 2113.65C1375.68 2118.4 1404.37 2147.3 1412.99 2159.16C1420.76 2169.73 1435.21 2197.33 1438.44 2207.68C1439.95 2212.43 1442.11 2217.61 1443.4 2218.9C1444.48 2220.41 1444.91 2221.7 1444.27 2221.7C1443.4 2221.7 1444.27 2225.58 1445.99 2230.33C1447.72 2235.07 1449.66 2244.13 1450.52 2250.39C1452.46 2265.27 1452.68 2302.79 1450.74 2312.28C1449.87 2316.38 1448.8 2322.63 1448.15 2326.3C1440.6 2365.55 1414.07 2409.76 1381.51 2436.94C1372.45 2444.49 1347.65 2459.8 1338.16 2463.68C1325.87 2468.64 1314.87 2472.74 1312.28 2473.39C1311.2 2473.6 1307.75 2474.25 1304.73 2474.9C1263.97 2483.95 1227.09 2480.29 1189.35 2463.03C1159.8 2449.66 1126.37 2417.31 1113 2389.28C1098.98 2359.51 1096.83 2350.89 1096.83 2321.99C1096.61 2293.09 1097.91 2285.76 1105.45 2265.48C1116.67 2235.94 1142.98 2206.39 1169.29 2193.45C1174.47 2191.08 1180.07 2188.27 1182.02 2187.2C1191.5 2182.24 1219.76 2178.14 1235.5 2179.22C1244.56 2179.86 1253.4 2180.73 1255.13 2181.16C1294.59 2191.08 1327.81 2222.35 1337.3 2258.37C1340.1 2269.15 1340.53 2294.6 1338.37 2304.73C1333.41 2326.52 1312.71 2352.18 1292.65 2361.89C1277.56 2369.22 1249.3 2369.22 1236.79 2361.89C1217.6 2350.67 1207.68 2337.08 1206.6 2320.91C1205.74 2307.75 1210.27 2297.4 1219.33 2291.15C1227.31 2285.76 1235.29 2285.11 1241.32 2289.42C1245.21 2292.44 1245.21 2292.87 1241.97 2298.7C1237.66 2306.68 1238.3 2314.44 1244.34 2319.18C1265.69 2336.44 1296.97 2313.36 1295.02 2281.44C1292.22 2232.05 1228.17 2208.12 1182.66 2239.17C1152.47 2259.88 1136.08 2301.07 1143.84 2337.73C1147.72 2356.93 1158.08 2378.28 1169.51 2391.22C1185.25 2409.12 1211.99 2425.29 1233.78 2430.04C1243.05 2431.98 1284.46 2432.19 1291.79 2430.47C1310.12 2425.72 1327.37 2418.18 1340.96 2408.9C1352.18 2401.35 1372.45 2381.73 1379.13 2371.59C1386.9 2360.38 1397.25 2339.24 1398.33 2332.77C1398.98 2329.1 1400.92 2321.77 1402.43 2316.38C1407.6 2299.56 1406.74 2264.19 1400.92 2242.19C1400.49 2240.9 1399.62 2237.02 1398.54 2233.56C1392.94 2212 1364.9 2169.94 1347.86 2156.79C1343.98 2153.98 1338.37 2149.67 1335.35 2147.08C1322.2 2136.95 1292.87 2122.93 1276.26 2119.05C1250.81 2113.01 1219.54 2111.93 1192.8 2116.24C1171.23 2119.69 1142.98 2131.34 1120.33 2146C1087.12 2167.79 1057.14 2205.53 1043.13 2243.27C1028.89 2282.09 1026.09 2331.05 1036.01 2369.87C1041.83 2392.73 1050.46 2414.94 1057.14 2424.86C1059.3 2427.88 1061.03 2431.12 1061.03 2431.76C1061.03 2438.45 1096.4 2479.21 1116.02 2495.38C1124 2501.85 1124.65 2502.07 1127.24 2498.62C1131.12 2493.44 1130.9 2492.8 1124.22 2488.7C1116.02 2483.95 1089.49 2456.13 1079.14 2441.68C1070.95 2430.04 1069.65 2427.88 1060.6 2411.92C1055.42 2402.65 1044.42 2369.43 1042.26 2356.93C1040.32 2344.42 1040.32 2293.74 1042.26 2282.09C1049.81 2238.31 1075.69 2194.74 1111.06 2165.63C1133.06 2147.3 1147.08 2139.75 1176.41 2129.83C1184.39 2127.03 1212.64 2123.14 1226.01 2122.71C1240.03 2122.28 1248.66 2123.36 1272.38 2127.89C1279.71 2129.4 1287.69 2132.42 1308.18 2142.12C1329.53 2152.26 1355.84 2175.98 1370.72 2198.63C1381.72 2215.02 1392.29 2241.33 1394.66 2257.93C1396.17 2269.37 1396.17 2296.97 1394.45 2306.89C1392.51 2319.62 1390.78 2326.3 1389.06 2330.61C1378.92 2353.48 1374.39 2362.32 1367.06 2371.59C1359.72 2380.65 1354.12 2386.04 1333.63 2402.65C1332.34 2403.73 1326.94 2406.74 1321.77 2409.33C1276.69 2431.33 1226.66 2426.8 1189.78 2397.26C1177.49 2387.33 1162.61 2365.77 1156.35 2348.95C1152.04 2337.08 1150.1 2303.44 1153.33 2298.26C1154.19 2297.19 1155.06 2294.38 1155.27 2292.44C1157.86 2276.48 1179.43 2250.6 1198.19 2241.11C1206.82 2236.8 1211.99 2235.72 1226.01 2235.72C1251.68 2235.72 1260.09 2239.17 1274.11 2255.13C1287.48 2270.23 1290.06 2287.91 1281.01 2302.58C1273.24 2315.09 1257.28 2319.62 1249.09 2311.64C1246.07 2308.4 1246.07 2307.75 1249.3 2304.09C1260.95 2291.15 1243.48 2272.38 1224.93 2277.78C1197.97 2285.54 1188.49 2318.97 1205.52 2346.36C1215.23 2362.1 1231.19 2372.89 1250.6 2376.34C1263.11 2378.71 1267.2 2378.49 1287.05 2373.96C1296.53 2371.81 1314.87 2359.73 1324.79 2349.16C1356.49 2315.3 1358.65 2259.66 1329.75 2220.62C1313.14 2198.2 1287.05 2178.79 1268.71 2175.33C1266.56 2174.9 1264.62 2174.47 1264.4 2174.26C1263.54 2173.61 1261.81 2173.18 1249.73 2171.24C1227.95 2167.57 1200.78 2169.94 1181.58 2176.84C1153.98 2187.2 1123.14 2212.86 1107.83 2238.52C1103.51 2246.07 1099.85 2252.97 1099.85 2253.84C1099.85 2254.7 1098.34 2258.58 1096.61 2262.25C1094.67 2265.91 1092.73 2270.66 1092.3 2272.82C1091.87 2274.97 1090.36 2281.44 1088.85 2287.48C1084.53 2305.6 1085.61 2338.81 1091.22 2359.73C1101.14 2396.39 1119.69 2424.86 1149.45 2449.23C1161.1 2458.72 1187.41 2474.25 1191.5 2474.03C1192.15 2474.03 1195.39 2475.33 1199.05 2477.27C1202.5 2478.99 1213.29 2482.44 1222.99 2484.6C1244.34 2489.56 1292.44 2489.35 1310.12 2484.17C1351.1 2472.31 1386.68 2449.88 1411.48 2420.33C1422.92 2406.96 1440.6 2381.08 1440.6 2377.85C1440.6 2377.41 1442.97 2372.02 1445.78 2365.77C1450.3 2356.06 1453.11 2348.08 1454.83 2339.67C1455.05 2338.81 1455.48 2337.73 1455.7 2337.08C1455.91 2336.44 1456.34 2335.36 1456.56 2334.28C1467.13 2290.93 1461.95 2234.86 1443.4 2193.88C1429.17 2162.39 1406.52 2132.63 1379.57 2109.77C1367.7 2099.85 1366.19 2099.2 1362.96 2105.03Z"
          fill="#307630"/>
</svg>
