<svg width="24" height="30" viewBox="0 0 24 30" fill="none" xmlns="http://www.w3.org/2000/svg">
<path d="M12.458 14.6584C12.458 14.6584 4.30142 15.678 4.38652 11.1401C4.48664 5.78661 10.2791 1.64204 14.8315 0.5C14.8315 0.5 9.72057 1.44009 6.25726 3.7481C2.79396 6.05611 0 9.27184 0 11.9929C0 14.714 2.82256 16.0326 4.10691 16.2522C5.39126 16.4717 8.07294 16.6096 12.458 14.6584Z" fill="#121217"/>
<path d="M0.763672 29.5001C0.763672 29.5001 7.83045 26.9971 13.4434 21.9969C19.0563 16.9967 20.0611 9.28597 8.50909 11.4976C8.50909 11.4976 13.2346 9.56885 16.6471 9.56885C20.0596 9.56885 23.9964 10.2021 23.9964 14.0948C23.9992 19.3856 13.8009 28.9449 0.763672 29.5001Z" fill="#121217"/>
<path d="M21.4754 2.61871C22.2285 3.90219 21.6342 5.62686 20.1482 6.47055C18.6622 7.31424 16.8479 6.95889 16.0949 5.67541C15.3419 4.39193 15.9633 2.713 17.4214 1.82357C18.6901 1.04954 20.7224 1.33523 21.4754 2.61871Z" fill="#121217"/>
</svg>
